<?xml version='1.0' encoding='UTF-8'?>
<svg x="0px" y="0px" viewBox="0 0 32 32" version="1.1" xmlns="http://www.w3.org/2000/svg" xmlns:xlink="http://www.w3.org/1999/xlink" enable-background="new 0 0 32 32" xml:space="preserve" id="Layer_1">
  <g id="Print_1_">
    <path d="M10,4h12v8h2V2H8v10h2V4z M28,10h-2v3c0,0.6-0.4,1-1,1H7c-0.6,0-1-0.4-1-1v-3H4c-1.1,0-2,0.9-2,2   v12c0,1.1,0.9,2,2,2h4v4h16v-4h4c1.1,0,2-0.9,2-2V12C30,10.9,29.1,10,28,10z M22,24v2v2H10v-2v-2v-4h12V24z" fill="#727272" id="Print" class="Black" />
  </g>
</svg>